# xmcd
#
# Track frame offsets:
#	150
#	11702
#	20955
#	37541
#	54981
#	68114
#	77695
#	88694
#	102485
#	115012
#	128194
#	138487
#	157836
#	172676
#	195130
#	208552
#	220846
#	235880
#	250185
#	266126
#	280761
#	296498
#	307769
#
# Disc length: 4250 seconds
# Revision: 0
# Processed by: cddbd v1.5.2PL0 Copyright (c) Steve Scherf et al.
# Submitted via: dBpowerAMP V12.0
#
DISCID=30109817
DTITLE=Pacifik - Velrybářská výbava
DYEAR=1900
DGENRE=
TTITLE0=Blátivá cesta
TTITLE1=Stovky vlaků
TTITLE2=Orinoko
TTITLE3=Dokud tráva bude růst
TTITLE4=Velrybářská výprava
TTITLE5=Dobrej den
TTITLE6=Jaro nad Bretaní
TTITLE7=Hej, kočí
TTITLE8=Ty se mi zdáš
TTITLE9=Staromódní blues
TTITLE10=Jak roky rychle letí
TTITLE11=Džínová láska
TTITLE12=Žižkovské tango
TTITLE13=Jazzová píseň
TTITLE14=Studený slunce
TTITLE15=První dáma country music
TTITLE16=Mám srdce kovboje
TTITLE17=Táhnu dál
TTITLE18=Zlatý údolí
TTITLE19=Vyznání
TTITLE20=Cestou do Stínadel
TTITLE21=Tak už koukej se hnout
TTITLE22=Černý pasažér
EXTD=
EXTT0=
EXTT1=
EXTT2=
EXTT3=
EXTT4=
EXTT5=
EXTT6=
EXTT7=
EXTT8=
EXTT9=
EXTT10=
EXTT11=
EXTT12=
EXTT13=
EXTT14=
EXTT15=
EXTT16=
EXTT17=
EXTT18=
EXTT19=
EXTT20=
EXTT21=
EXTT22=
PLAYORDER=
